<mxfile host="app.diagrams.net" agent="Mozilla/5.0 (X11; Linux x86_64; Chromium GOST) AppleWebKit/537.36 (KHTML, like Gecko) Chrome/128.0.0.0 Safari/537.36" version="24.7.17">
  <diagram name="Страница — 1" id="7RwMJW1QBUgXoFeDSH4K">
    <mxGraphModel dx="2261" dy="1962" grid="1" gridSize="10" guides="1" tooltips="1" connect="1" arrows="1" fold="1" page="1" pageScale="1" pageWidth="827" pageHeight="1169" math="0" shadow="0">
      <root>
        <mxCell id="0" />
        <mxCell id="1" parent="0" />
        <mxCell id="tChx3rIfr6ubPcl1BAs6-32" style="rounded=0;orthogonalLoop=1;jettySize=auto;html=1;entryX=0.5;entryY=0;entryDx=0;entryDy=0;endArrow=none;endFill=0;" edge="1" parent="1" source="tChx3rIfr6ubPcl1BAs6-1" target="tChx3rIfr6ubPcl1BAs6-30">
          <mxGeometry relative="1" as="geometry" />
        </mxCell>
        <mxCell id="tChx3rIfr6ubPcl1BAs6-77" style="edgeStyle=orthogonalEdgeStyle;rounded=0;orthogonalLoop=1;jettySize=auto;html=1;exitX=1;exitY=0.5;exitDx=0;exitDy=0;entryX=0;entryY=0.5;entryDx=0;entryDy=0;endArrow=none;endFill=0;startArrow=block;startFill=0;fillColor=#dae8fc;strokeColor=#6c8ebf;" edge="1" parent="1" source="tChx3rIfr6ubPcl1BAs6-1" target="tChx3rIfr6ubPcl1BAs6-2">
          <mxGeometry relative="1" as="geometry" />
        </mxCell>
        <mxCell id="tChx3rIfr6ubPcl1BAs6-1" value="Авторизация" style="ellipse;whiteSpace=wrap;html=1;fillColor=#dae8fc;strokeColor=#6c8ebf;" vertex="1" parent="1">
          <mxGeometry x="354" y="50" width="120" height="80" as="geometry" />
        </mxCell>
        <mxCell id="tChx3rIfr6ubPcl1BAs6-19" style="rounded=0;orthogonalLoop=1;jettySize=auto;html=1;dashed=1;fillColor=#e1d5e7;strokeColor=#9673a6;" edge="1" parent="1" source="tChx3rIfr6ubPcl1BAs6-2" target="tChx3rIfr6ubPcl1BAs6-14">
          <mxGeometry relative="1" as="geometry" />
        </mxCell>
        <mxCell id="tChx3rIfr6ubPcl1BAs6-23" value="include" style="edgeLabel;html=1;align=center;verticalAlign=middle;resizable=0;points=[];" vertex="1" connectable="0" parent="tChx3rIfr6ubPcl1BAs6-19">
          <mxGeometry x="0.0391" y="-5" relative="1" as="geometry">
            <mxPoint as="offset" />
          </mxGeometry>
        </mxCell>
        <mxCell id="tChx3rIfr6ubPcl1BAs6-20" style="rounded=0;orthogonalLoop=1;jettySize=auto;html=1;dashed=1;fillColor=#e1d5e7;strokeColor=#9673a6;" edge="1" parent="1" source="tChx3rIfr6ubPcl1BAs6-2" target="tChx3rIfr6ubPcl1BAs6-16">
          <mxGeometry relative="1" as="geometry" />
        </mxCell>
        <mxCell id="tChx3rIfr6ubPcl1BAs6-24" value="include" style="edgeLabel;html=1;align=center;verticalAlign=middle;resizable=0;points=[];" vertex="1" connectable="0" parent="tChx3rIfr6ubPcl1BAs6-20">
          <mxGeometry x="0.2092" y="3" relative="1" as="geometry">
            <mxPoint as="offset" />
          </mxGeometry>
        </mxCell>
        <mxCell id="tChx3rIfr6ubPcl1BAs6-22" style="rounded=0;orthogonalLoop=1;jettySize=auto;html=1;dashed=1;fillColor=#e1d5e7;strokeColor=#9673a6;" edge="1" parent="1" source="tChx3rIfr6ubPcl1BAs6-2" target="tChx3rIfr6ubPcl1BAs6-18">
          <mxGeometry relative="1" as="geometry" />
        </mxCell>
        <mxCell id="tChx3rIfr6ubPcl1BAs6-26" value="include" style="edgeLabel;html=1;align=center;verticalAlign=middle;resizable=0;points=[];" vertex="1" connectable="0" parent="tChx3rIfr6ubPcl1BAs6-22">
          <mxGeometry x="-0.4143" y="1" relative="1" as="geometry">
            <mxPoint as="offset" />
          </mxGeometry>
        </mxCell>
        <mxCell id="tChx3rIfr6ubPcl1BAs6-97" style="rounded=0;orthogonalLoop=1;jettySize=auto;html=1;exitX=0;exitY=1;exitDx=0;exitDy=0;entryX=1;entryY=0;entryDx=0;entryDy=0;fillColor=#dae8fc;strokeColor=#6c8ebf;dashed=1;endArrow=none;endFill=0;" edge="1" parent="1" source="tChx3rIfr6ubPcl1BAs6-2" target="tChx3rIfr6ubPcl1BAs6-30">
          <mxGeometry relative="1" as="geometry" />
        </mxCell>
        <mxCell id="tChx3rIfr6ubPcl1BAs6-2" value="Регистрация" style="ellipse;whiteSpace=wrap;html=1;fillColor=#dae8fc;strokeColor=#6c8ebf;" vertex="1" parent="1">
          <mxGeometry x="610" y="50" width="120" height="80" as="geometry" />
        </mxCell>
        <mxCell id="tChx3rIfr6ubPcl1BAs6-7" style="edgeStyle=orthogonalEdgeStyle;rounded=0;orthogonalLoop=1;jettySize=auto;html=1;entryX=0.5;entryY=0;entryDx=0;entryDy=0;endArrow=none;endFill=0;" edge="1" parent="1" source="tChx3rIfr6ubPcl1BAs6-3" target="tChx3rIfr6ubPcl1BAs6-1">
          <mxGeometry relative="1" as="geometry" />
        </mxCell>
        <mxCell id="tChx3rIfr6ubPcl1BAs6-3" value="Сотрудник" style="shape=umlActor;verticalLabelPosition=bottom;verticalAlign=top;html=1;outlineConnect=0;" vertex="1" parent="1">
          <mxGeometry x="394" y="-170" width="40" height="80" as="geometry" />
        </mxCell>
        <mxCell id="tChx3rIfr6ubPcl1BAs6-11" style="rounded=0;orthogonalLoop=1;jettySize=auto;html=1;endArrow=none;endFill=0;dashed=1;startArrow=classic;startFill=1;fillColor=#e1d5e7;strokeColor=#9673a6;entryX=0;entryY=0.5;entryDx=0;entryDy=0;" edge="1" parent="1" source="tChx3rIfr6ubPcl1BAs6-8" target="tChx3rIfr6ubPcl1BAs6-1">
          <mxGeometry relative="1" as="geometry">
            <mxPoint x="280" y="120" as="targetPoint" />
          </mxGeometry>
        </mxCell>
        <mxCell id="tChx3rIfr6ubPcl1BAs6-12" value="include" style="edgeLabel;html=1;align=center;verticalAlign=middle;resizable=0;points=[];" vertex="1" connectable="0" parent="tChx3rIfr6ubPcl1BAs6-11">
          <mxGeometry x="-0.3702" relative="1" as="geometry">
            <mxPoint as="offset" />
          </mxGeometry>
        </mxCell>
        <mxCell id="tChx3rIfr6ubPcl1BAs6-8" value="Пароль" style="ellipse;whiteSpace=wrap;html=1;fillColor=#e1d5e7;strokeColor=#9673a6;" vertex="1" parent="1">
          <mxGeometry x="140" y="40" width="120" height="80" as="geometry" />
        </mxCell>
        <mxCell id="tChx3rIfr6ubPcl1BAs6-10" style="rounded=0;orthogonalLoop=1;jettySize=auto;html=1;dashed=1;endArrow=none;endFill=0;startArrow=classic;startFill=1;fillColor=#e1d5e7;strokeColor=#9673a6;" edge="1" parent="1" source="tChx3rIfr6ubPcl1BAs6-9" target="tChx3rIfr6ubPcl1BAs6-1">
          <mxGeometry relative="1" as="geometry" />
        </mxCell>
        <mxCell id="tChx3rIfr6ubPcl1BAs6-13" value="include" style="edgeLabel;html=1;align=center;verticalAlign=middle;resizable=0;points=[];" vertex="1" connectable="0" parent="tChx3rIfr6ubPcl1BAs6-10">
          <mxGeometry x="0.2" y="-1" relative="1" as="geometry">
            <mxPoint as="offset" />
          </mxGeometry>
        </mxCell>
        <mxCell id="tChx3rIfr6ubPcl1BAs6-9" value="Email" style="ellipse;whiteSpace=wrap;html=1;fillColor=#e1d5e7;strokeColor=#9673a6;" vertex="1" parent="1">
          <mxGeometry x="174" y="130" width="120" height="80" as="geometry" />
        </mxCell>
        <mxCell id="tChx3rIfr6ubPcl1BAs6-14" value="ФИО" style="ellipse;whiteSpace=wrap;html=1;fillColor=#e1d5e7;strokeColor=#9673a6;" vertex="1" parent="1">
          <mxGeometry x="700" y="-100" width="120" height="80" as="geometry" />
        </mxCell>
        <mxCell id="tChx3rIfr6ubPcl1BAs6-16" value="Номер телефона" style="ellipse;whiteSpace=wrap;html=1;fillColor=#e1d5e7;strokeColor=#9673a6;" vertex="1" parent="1">
          <mxGeometry x="820" y="-30" width="120" height="80" as="geometry" />
        </mxCell>
        <mxCell id="tChx3rIfr6ubPcl1BAs6-17" value="Email" style="ellipse;whiteSpace=wrap;html=1;fillColor=#e1d5e7;strokeColor=#9673a6;" vertex="1" parent="1">
          <mxGeometry x="820" y="70" width="120" height="80" as="geometry" />
        </mxCell>
        <mxCell id="tChx3rIfr6ubPcl1BAs6-18" value="Пароль" style="ellipse;whiteSpace=wrap;html=1;fillColor=#e1d5e7;strokeColor=#9673a6;" vertex="1" parent="1">
          <mxGeometry x="630" y="180" width="120" height="80" as="geometry" />
        </mxCell>
        <mxCell id="tChx3rIfr6ubPcl1BAs6-21" style="rounded=0;orthogonalLoop=1;jettySize=auto;html=1;entryX=0;entryY=0.375;entryDx=0;entryDy=0;entryPerimeter=0;dashed=1;fillColor=#e1d5e7;strokeColor=#9673a6;" edge="1" parent="1" source="tChx3rIfr6ubPcl1BAs6-2" target="tChx3rIfr6ubPcl1BAs6-17">
          <mxGeometry relative="1" as="geometry" />
        </mxCell>
        <mxCell id="tChx3rIfr6ubPcl1BAs6-25" value="include" style="edgeLabel;html=1;align=center;verticalAlign=middle;resizable=0;points=[];" vertex="1" connectable="0" parent="tChx3rIfr6ubPcl1BAs6-21">
          <mxGeometry x="-0.0349" y="-4" relative="1" as="geometry">
            <mxPoint as="offset" />
          </mxGeometry>
        </mxCell>
        <mxCell id="tChx3rIfr6ubPcl1BAs6-28" style="rounded=0;orthogonalLoop=1;jettySize=auto;html=1;dashed=1;endArrow=none;endFill=0;entryX=0;entryY=0;entryDx=0;entryDy=0;" edge="1" parent="1" source="tChx3rIfr6ubPcl1BAs6-27" target="tChx3rIfr6ubPcl1BAs6-1">
          <mxGeometry relative="1" as="geometry">
            <mxPoint x="280" y="120" as="targetPoint" />
          </mxGeometry>
        </mxCell>
        <mxCell id="tChx3rIfr6ubPcl1BAs6-27" value="Если пароль или Логин введён неверно, то высвечивается ошибка" style="shape=note;size=20;whiteSpace=wrap;html=1;" vertex="1" parent="1">
          <mxGeometry x="224" y="-80" width="130" height="100" as="geometry" />
        </mxCell>
        <mxCell id="tChx3rIfr6ubPcl1BAs6-36" style="rounded=0;orthogonalLoop=1;jettySize=auto;html=1;exitX=1;exitY=1;exitDx=0;exitDy=0;endArrow=none;endFill=0;fillColor=#dae8fc;strokeColor=#6c8ebf;" edge="1" parent="1" source="tChx3rIfr6ubPcl1BAs6-30" target="tChx3rIfr6ubPcl1BAs6-34">
          <mxGeometry relative="1" as="geometry" />
        </mxCell>
        <mxCell id="tChx3rIfr6ubPcl1BAs6-53" style="rounded=0;orthogonalLoop=1;jettySize=auto;html=1;entryX=1;entryY=0;entryDx=0;entryDy=0;endArrow=none;endFill=0;fillColor=#dae8fc;strokeColor=#6c8ebf;" edge="1" parent="1" source="tChx3rIfr6ubPcl1BAs6-30" target="tChx3rIfr6ubPcl1BAs6-52">
          <mxGeometry relative="1" as="geometry" />
        </mxCell>
        <mxCell id="tChx3rIfr6ubPcl1BAs6-30" value="Главная страница" style="ellipse;whiteSpace=wrap;html=1;fillColor=#dae8fc;strokeColor=#6c8ebf;" vertex="1" parent="1">
          <mxGeometry x="354" y="240" width="120" height="80" as="geometry" />
        </mxCell>
        <mxCell id="tChx3rIfr6ubPcl1BAs6-47" value="include" style="rounded=0;orthogonalLoop=1;jettySize=auto;html=1;dashed=1;fillColor=#e1d5e7;strokeColor=#9673a6;" edge="1" parent="1" source="tChx3rIfr6ubPcl1BAs6-33" target="tChx3rIfr6ubPcl1BAs6-43">
          <mxGeometry relative="1" as="geometry" />
        </mxCell>
        <mxCell id="tChx3rIfr6ubPcl1BAs6-48" value="include" style="rounded=0;orthogonalLoop=1;jettySize=auto;html=1;dashed=1;fillColor=#e1d5e7;strokeColor=#9673a6;" edge="1" parent="1" source="tChx3rIfr6ubPcl1BAs6-33" target="tChx3rIfr6ubPcl1BAs6-46">
          <mxGeometry relative="1" as="geometry" />
        </mxCell>
        <mxCell id="tChx3rIfr6ubPcl1BAs6-33" value="Страница формирование заявок" style="ellipse;whiteSpace=wrap;html=1;fillColor=#dae8fc;strokeColor=#6c8ebf;" vertex="1" parent="1">
          <mxGeometry x="690" y="480" width="120" height="80" as="geometry" />
        </mxCell>
        <mxCell id="tChx3rIfr6ubPcl1BAs6-79" value="include" style="rounded=0;orthogonalLoop=1;jettySize=auto;html=1;dashed=1;fillColor=#e1d5e7;strokeColor=#9673a6;" edge="1" parent="1" source="tChx3rIfr6ubPcl1BAs6-34" target="tChx3rIfr6ubPcl1BAs6-78">
          <mxGeometry relative="1" as="geometry" />
        </mxCell>
        <mxCell id="tChx3rIfr6ubPcl1BAs6-34" value="Страница заявок" style="ellipse;whiteSpace=wrap;html=1;fillColor=#dae8fc;strokeColor=#6c8ebf;" vertex="1" parent="1">
          <mxGeometry x="540" y="340" width="120" height="80" as="geometry" />
        </mxCell>
        <mxCell id="tChx3rIfr6ubPcl1BAs6-37" value="доступ открывается по логину avtor&lt;div&gt;паролю avtor123&lt;/div&gt;" style="shape=note;size=20;whiteSpace=wrap;html=1;" vertex="1" parent="1">
          <mxGeometry x="730" y="340" width="100" height="80" as="geometry" />
        </mxCell>
        <mxCell id="tChx3rIfr6ubPcl1BAs6-38" style="rounded=0;orthogonalLoop=1;jettySize=auto;html=1;entryX=0;entryY=0.5;entryDx=0;entryDy=0;entryPerimeter=0;dashed=1;endArrow=none;endFill=0;" edge="1" parent="1" source="tChx3rIfr6ubPcl1BAs6-34" target="tChx3rIfr6ubPcl1BAs6-37">
          <mxGeometry relative="1" as="geometry">
            <mxPoint x="630" y="400" as="sourcePoint" />
          </mxGeometry>
        </mxCell>
        <mxCell id="tChx3rIfr6ubPcl1BAs6-41" value="" style="rounded=0;orthogonalLoop=1;jettySize=auto;html=1;exitX=0.75;exitY=1;exitDx=0;exitDy=0;endArrow=none;endFill=0;fillColor=#dae8fc;strokeColor=#6c8ebf;entryX=0.5;entryY=0;entryDx=0;entryDy=0;startArrow=none;startFill=0;exitPerimeter=0;" edge="1" parent="1" source="tChx3rIfr6ubPcl1BAs6-34" target="tChx3rIfr6ubPcl1BAs6-33">
          <mxGeometry relative="1" as="geometry">
            <mxPoint x="480" y="480" as="targetPoint" />
          </mxGeometry>
        </mxCell>
        <mxCell id="tChx3rIfr6ubPcl1BAs6-43" value="Категория проблемы" style="ellipse;whiteSpace=wrap;html=1;fillColor=#e1d5e7;strokeColor=#9673a6;" vertex="1" parent="1">
          <mxGeometry x="850" y="630" width="120" height="80" as="geometry" />
        </mxCell>
        <mxCell id="tChx3rIfr6ubPcl1BAs6-44" value="Отдел" style="ellipse;whiteSpace=wrap;html=1;fillColor=#e1d5e7;strokeColor=#9673a6;" vertex="1" parent="1">
          <mxGeometry x="780" y="160" width="120" height="80" as="geometry" />
        </mxCell>
        <mxCell id="tChx3rIfr6ubPcl1BAs6-45" value="include" style="rounded=0;orthogonalLoop=1;jettySize=auto;html=1;exitX=1;exitY=1;exitDx=0;exitDy=0;entryX=0.083;entryY=0.238;entryDx=0;entryDy=0;entryPerimeter=0;dashed=1;fillColor=#e1d5e7;strokeColor=#9673a6;" edge="1" parent="1" source="tChx3rIfr6ubPcl1BAs6-2" target="tChx3rIfr6ubPcl1BAs6-44">
          <mxGeometry relative="1" as="geometry" />
        </mxCell>
        <mxCell id="tChx3rIfr6ubPcl1BAs6-46" value="Описание проблемы" style="ellipse;whiteSpace=wrap;html=1;fillColor=#e1d5e7;strokeColor=#9673a6;" vertex="1" parent="1">
          <mxGeometry x="690" y="630" width="120" height="80" as="geometry" />
        </mxCell>
        <mxCell id="tChx3rIfr6ubPcl1BAs6-50" value="Администратор" style="shape=umlActor;verticalLabelPosition=bottom;verticalAlign=top;html=1;outlineConnect=0;" vertex="1" parent="1">
          <mxGeometry x="394" y="-330" width="40" height="80" as="geometry" />
        </mxCell>
        <mxCell id="tChx3rIfr6ubPcl1BAs6-51" style="edgeStyle=orthogonalEdgeStyle;rounded=0;orthogonalLoop=1;jettySize=auto;html=1;entryX=0.5;entryY=0;entryDx=0;entryDy=0;entryPerimeter=0;endArrow=none;endFill=0;" edge="1" parent="1" source="tChx3rIfr6ubPcl1BAs6-50" target="tChx3rIfr6ubPcl1BAs6-3">
          <mxGeometry relative="1" as="geometry" />
        </mxCell>
        <mxCell id="tChx3rIfr6ubPcl1BAs6-60" value="" style="rounded=0;orthogonalLoop=1;jettySize=auto;html=1;exitX=0;exitY=1;exitDx=0;exitDy=0;dashed=1;fillColor=#fff2cc;strokeColor=#d6b656;startArrow=block;startFill=0;endArrow=none;endFill=0;" edge="1" parent="1" source="tChx3rIfr6ubPcl1BAs6-52" target="tChx3rIfr6ubPcl1BAs6-59">
          <mxGeometry relative="1" as="geometry" />
        </mxCell>
        <mxCell id="tChx3rIfr6ubPcl1BAs6-61" value="include" style="rounded=0;orthogonalLoop=1;jettySize=auto;html=1;exitX=0.5;exitY=1;exitDx=0;exitDy=0;entryX=0.5;entryY=0;entryDx=0;entryDy=0;dashed=1;fillColor=#e1d5e7;strokeColor=#9673a6;" edge="1" parent="1" source="tChx3rIfr6ubPcl1BAs6-52" target="tChx3rIfr6ubPcl1BAs6-58">
          <mxGeometry relative="1" as="geometry" />
        </mxCell>
        <mxCell id="tChx3rIfr6ubPcl1BAs6-52" value="Панель администратора" style="ellipse;whiteSpace=wrap;html=1;fillColor=#dae8fc;strokeColor=#6c8ebf;" vertex="1" parent="1">
          <mxGeometry x="140" y="410" width="120" height="80" as="geometry" />
        </mxCell>
        <mxCell id="tChx3rIfr6ubPcl1BAs6-55" style="rounded=0;orthogonalLoop=1;jettySize=auto;html=1;endArrow=none;endFill=0;dashed=1;" edge="1" parent="1" source="tChx3rIfr6ubPcl1BAs6-54">
          <mxGeometry relative="1" as="geometry">
            <mxPoint x="330" y="350" as="targetPoint" />
          </mxGeometry>
        </mxCell>
        <mxCell id="tChx3rIfr6ubPcl1BAs6-54" value="Могут войти только администратор" style="shape=note;size=20;whiteSpace=wrap;html=1;" vertex="1" parent="1">
          <mxGeometry x="140" y="290" width="100" height="100" as="geometry" />
        </mxCell>
        <mxCell id="tChx3rIfr6ubPcl1BAs6-57" style="rounded=0;orthogonalLoop=1;jettySize=auto;html=1;exitX=0.5;exitY=1;exitDx=0;exitDy=0;exitPerimeter=0;entryX=0;entryY=0.375;entryDx=0;entryDy=0;dashed=1;endArrow=none;endFill=0;entryPerimeter=0;" edge="1" parent="1" source="tChx3rIfr6ubPcl1BAs6-56" target="tChx3rIfr6ubPcl1BAs6-52">
          <mxGeometry relative="1" as="geometry" />
        </mxCell>
        <mxCell id="tChx3rIfr6ubPcl1BAs6-56" value="Доступ в панель по Логину help&lt;div&gt;паролю helpme&lt;/div&gt;" style="shape=note;size=20;whiteSpace=wrap;html=1;" vertex="1" parent="1">
          <mxGeometry x="10" y="300" width="100" height="100" as="geometry" />
        </mxCell>
        <mxCell id="tChx3rIfr6ubPcl1BAs6-58" value="Видит заявки Сотрудников" style="ellipse;whiteSpace=wrap;html=1;fillColor=#e1d5e7;strokeColor=#9673a6;" vertex="1" parent="1">
          <mxGeometry x="140" y="570" width="120" height="80" as="geometry" />
        </mxCell>
        <mxCell id="tChx3rIfr6ubPcl1BAs6-59" value="Может поменять статус заявки" style="ellipse;whiteSpace=wrap;html=1;fillColor=#fff2cc;strokeColor=#d6b656;" vertex="1" parent="1">
          <mxGeometry y="490" width="120" height="80" as="geometry" />
        </mxCell>
        <mxCell id="tChx3rIfr6ubPcl1BAs6-80" value="Если пользователь не зарегистрирован, может перейти в раздел регистрации" style="shape=note;size=20;whiteSpace=wrap;html=1;" vertex="1" parent="1">
          <mxGeometry x="510" y="-80" width="100" height="100" as="geometry" />
        </mxCell>
        <mxCell id="tChx3rIfr6ubPcl1BAs6-81" style="rounded=0;orthogonalLoop=1;jettySize=auto;html=1;entryX=0.5;entryY=1;entryDx=0;entryDy=0;entryPerimeter=0;dashed=1;endArrow=none;endFill=0;" edge="1" parent="1" source="tChx3rIfr6ubPcl1BAs6-1" target="tChx3rIfr6ubPcl1BAs6-80">
          <mxGeometry relative="1" as="geometry" />
        </mxCell>
        <mxCell id="tChx3rIfr6ubPcl1BAs6-78" value="Посмотреть свою заявку со статусами" style="ellipse;whiteSpace=wrap;html=1;fillColor=#e1d5e7;strokeColor=#9673a6;" vertex="1" parent="1">
          <mxGeometry x="460" y="460" width="120" height="80" as="geometry" />
        </mxCell>
        <mxCell id="tChx3rIfr6ubPcl1BAs6-83" style="rounded=0;orthogonalLoop=1;jettySize=auto;html=1;dashed=1;fillColor=#f8cecc;strokeColor=#b85450;exitX=1;exitY=0.5;exitDx=0;exitDy=0;" edge="1" parent="1" target="tChx3rIfr6ubPcl1BAs6-89" source="tChx3rIfr6ubPcl1BAs6-58">
          <mxGeometry relative="1" as="geometry">
            <mxPoint x="252" y="863" as="sourcePoint" />
          </mxGeometry>
        </mxCell>
        <mxCell id="tChx3rIfr6ubPcl1BAs6-84" value="include" style="edgeLabel;html=1;align=center;verticalAlign=middle;resizable=0;points=[];" vertex="1" connectable="0" parent="tChx3rIfr6ubPcl1BAs6-83">
          <mxGeometry x="0.0391" y="-5" relative="1" as="geometry">
            <mxPoint as="offset" />
          </mxGeometry>
        </mxCell>
        <mxCell id="tChx3rIfr6ubPcl1BAs6-85" style="rounded=0;orthogonalLoop=1;jettySize=auto;html=1;dashed=1;fillColor=#f8cecc;strokeColor=#b85450;" edge="1" parent="1" target="tChx3rIfr6ubPcl1BAs6-90" source="tChx3rIfr6ubPcl1BAs6-58">
          <mxGeometry relative="1" as="geometry">
            <mxPoint x="282" y="880" as="sourcePoint" />
          </mxGeometry>
        </mxCell>
        <mxCell id="tChx3rIfr6ubPcl1BAs6-86" value="include" style="edgeLabel;html=1;align=center;verticalAlign=middle;resizable=0;points=[];" vertex="1" connectable="0" parent="tChx3rIfr6ubPcl1BAs6-85">
          <mxGeometry x="0.2092" y="3" relative="1" as="geometry">
            <mxPoint as="offset" />
          </mxGeometry>
        </mxCell>
        <mxCell id="tChx3rIfr6ubPcl1BAs6-87" style="rounded=0;orthogonalLoop=1;jettySize=auto;html=1;dashed=1;fillColor=#f8cecc;strokeColor=#b85450;exitX=0;exitY=0.625;exitDx=0;exitDy=0;exitPerimeter=0;" edge="1" parent="1" target="tChx3rIfr6ubPcl1BAs6-92" source="tChx3rIfr6ubPcl1BAs6-58">
          <mxGeometry relative="1" as="geometry">
            <mxPoint x="236" y="940" as="sourcePoint" />
          </mxGeometry>
        </mxCell>
        <mxCell id="tChx3rIfr6ubPcl1BAs6-88" value="include" style="edgeLabel;html=1;align=center;verticalAlign=middle;resizable=0;points=[];" vertex="1" connectable="0" parent="tChx3rIfr6ubPcl1BAs6-87">
          <mxGeometry x="-0.4143" y="1" relative="1" as="geometry">
            <mxPoint as="offset" />
          </mxGeometry>
        </mxCell>
        <mxCell id="tChx3rIfr6ubPcl1BAs6-89" value="ФИО" style="ellipse;whiteSpace=wrap;html=1;fillColor=#f8cecc;strokeColor=#b85450;" vertex="1" parent="1">
          <mxGeometry x="320" y="620" width="120" height="80" as="geometry" />
        </mxCell>
        <mxCell id="tChx3rIfr6ubPcl1BAs6-90" value="Номер телефона" style="ellipse;whiteSpace=wrap;html=1;fillColor=#f8cecc;strokeColor=#b85450;" vertex="1" parent="1">
          <mxGeometry x="270" y="710" width="120" height="80" as="geometry" />
        </mxCell>
        <mxCell id="tChx3rIfr6ubPcl1BAs6-91" value="Email" style="ellipse;whiteSpace=wrap;html=1;fillColor=#f8cecc;strokeColor=#b85450;" vertex="1" parent="1">
          <mxGeometry x="140" y="770" width="120" height="80" as="geometry" />
        </mxCell>
        <mxCell id="tChx3rIfr6ubPcl1BAs6-92" value="Пароль" style="ellipse;whiteSpace=wrap;html=1;fillColor=#f8cecc;strokeColor=#b85450;" vertex="1" parent="1">
          <mxGeometry x="-60" y="630" width="120" height="80" as="geometry" />
        </mxCell>
        <mxCell id="tChx3rIfr6ubPcl1BAs6-93" style="rounded=0;orthogonalLoop=1;jettySize=auto;html=1;entryX=0.5;entryY=0;entryDx=0;entryDy=0;dashed=1;fillColor=#f8cecc;strokeColor=#b85450;exitX=0.5;exitY=1;exitDx=0;exitDy=0;" edge="1" parent="1" target="tChx3rIfr6ubPcl1BAs6-91" source="tChx3rIfr6ubPcl1BAs6-58">
          <mxGeometry relative="1" as="geometry">
            <mxPoint x="290" y="904" as="sourcePoint" />
          </mxGeometry>
        </mxCell>
        <mxCell id="tChx3rIfr6ubPcl1BAs6-94" value="include" style="edgeLabel;html=1;align=center;verticalAlign=middle;resizable=0;points=[];" vertex="1" connectable="0" parent="tChx3rIfr6ubPcl1BAs6-93">
          <mxGeometry x="-0.0349" y="-4" relative="1" as="geometry">
            <mxPoint as="offset" />
          </mxGeometry>
        </mxCell>
        <mxCell id="tChx3rIfr6ubPcl1BAs6-95" value="Отдел" style="ellipse;whiteSpace=wrap;html=1;fillColor=#f8cecc;strokeColor=#b85450;" vertex="1" parent="1">
          <mxGeometry x="10" y="710" width="120" height="80" as="geometry" />
        </mxCell>
        <mxCell id="tChx3rIfr6ubPcl1BAs6-96" value="include" style="rounded=0;orthogonalLoop=1;jettySize=auto;html=1;entryX=0.808;entryY=0.075;entryDx=0;entryDy=0;entryPerimeter=0;dashed=1;fillColor=#f8cecc;strokeColor=#b85450;" edge="1" parent="1" target="tChx3rIfr6ubPcl1BAs6-95" source="tChx3rIfr6ubPcl1BAs6-58">
          <mxGeometry relative="1" as="geometry">
            <mxPoint x="272" y="928" as="sourcePoint" />
          </mxGeometry>
        </mxCell>
      </root>
    </mxGraphModel>
  </diagram>
</mxfile>
